<svg xmlns="http://www.w3.org/2000/svg" viewBox="0 0 96 96" width="96" height="96">
  <rect width="96" height="96" rx="20" fill="#0a0a0a"/>
  <g fill="none" stroke="#8b5cf6" stroke-width="10" stroke-linecap="round" stroke-linejoin="round" opacity="0.65">
    <g transform="translate(48, 34) scale(0.7) translate(-51, -48)">
      <path d="M 28 72 L 28 22 L 52 22 Q 74 22 74 44 Q 74 64 52 64 L 28 64"/>
      <path d="M 52 64 L 74 72"/>
    </g>
    <g transform="translate(24, 66) scale(0.7) rotate(-15) translate(-51, -48)">
      <path d="M 28 72 L 28 22 L 52 22 Q 74 22 74 44 Q 74 64 52 64 L 28 64"/>
      <path d="M 52 64 L 74 72"/>
    </g>
    <g transform="translate(72, 66) scale(0.7) rotate(15) translate(-51, -48)">
      <path d="M 28 72 L 28 22 L 52 22 Q 74 22 74 44 Q 74 64 52 64 L 28 64"/>
      <path d="M 52 64 L 74 72"/>
    </g>
  </g>
</svg>
